<?xml version="1.0" encoding="utf-8"?>
<!-- Generator: Adobe Illustrator 14.0.0, SVG Export Plug-In . SVG Version: 6.00 Build 43363)  -->
<!DOCTYPE svg PUBLIC "-//W3C//DTD SVG 1.1//EN" "http://www.w3.org/Graphics/SVG/1.1/DTD/svg11.dtd">
<svg version="1.1" id="Layer_1" xmlns="http://www.w3.org/2000/svg" xmlns:xlink="http://www.w3.org/1999/xlink" x="0px" y="0px"
	 width="234.032px" height="19.786px" viewBox="0 0 234.032 19.786" enable-background="new 0 0 234.032 19.786"
	 xml:space="preserve">
<g>
	<g>
		<path d="M10.417,19.786v-9.564l-3.179,6.045l-3.178-6.045v9.564H0V4.175h4.059l3.178,6.103l3.179-6.103h4.058v15.61H10.417z"/>
		<path d="M17.709,19.786V4.175h10.842v3.691h-6.783v2.269h3.377v3.689h-3.377v2.271h6.783v3.689H17.709z"/>
		<path d="M30.878,19.786v-3.975h1.703V8.15h-1.703V4.175h12.914v15.61H30.878z M39.733,8.15h-3.095v7.661h3.095V8.15z"/>
		<path d="M46.515,19.786v-3.975h1.703V8.15h-1.703V4.175h7.436V8.15h-1.674v7.661h1.674v3.975H46.515z"/>
		<path d="M56.676,19.786V4.175h11.041v5.677h-4.059V8.15h-2.924v7.661h2.924v-1.703h4.059v5.678H56.676z"/>
		<path d="M77.99,19.786l-0.313-3.379h-3.633l-0.312,3.379h-3.974l1.929-15.61h8.344l1.931,15.61H77.99z M76.882,8.15h-2.043
			l-0.397,4.284h2.839L76.882,8.15z"/>
		<path d="M94.762,19.786H84.176V4.175h4.059v11.921h2.61v-1.191h3.917V19.786z"/>
	</g>
	<g>
		<path fill="#EF4755" d="M97.147,19.786v-4.258h1.702V4.175h-1.702v-4.256h7.663v4.256h-1.704v11.353h1.704v4.258H97.147z"/>
		<path fill="#EF4755" d="M108.328,19.786v-4.258h1.987V4.175h-1.987v-4.256h14.616v19.866H108.328z M118.688,4.175h-4.115v11.353
			h4.115V4.175z"/>
	</g>
	<g>
		<path d="M131.459,7.867v2.665h4.795v3.691h-4.795v5.562h-4.059V4.175h10.586v3.691H131.459z"/>
		<path d="M146.813,19.786l-0.312-3.379h-3.633l-0.312,3.379h-3.975l1.932-15.61h8.344l1.932,15.61H146.813z M145.706,8.15h-2.043
			l-0.396,4.284h2.838L145.706,8.15z"/>
		<path d="M152.944,19.786v-3.406h7.295v-2.781h-7.295V4.175h11.352v3.662H157v2.354h7.295v9.594H152.944z"/>
		<path d="M175.024,19.786v-5.875h-3.52v5.875h-4.061V4.175h4.061v5.761h3.52V4.175h4.057v15.61H175.024z"/>
		<path d="M181.776,19.786v-3.975h1.703V8.15h-1.703V4.175h7.436V8.15h-1.674v7.661h1.674v3.975H181.776z"/>
		<path d="M191.936,19.786V4.175h11.637v15.61H191.936z M199.514,8.15h-3.52v7.661h3.52V8.15z"/>
		<path d="M215.321,19.786l-4.482-9.195v9.195h-4.059V4.175h4.059l4.482,9.196V4.175h4.061v15.61H215.321z"/>
		<path d="M222.532,19.786v-3.406h7.293v-2.781h-7.293V4.175h11.352v3.662h-7.293v2.354h7.293v9.594H222.532z"/>
	</g>
</g>
</svg>
